# AST/ASF file generated using VICON BodyLanguage
# -----------------------------------------------
:version 1.10
:name VICON
:units
  mass 1.0
  length 0.45
  angle deg
:documentation
   .ast/.asf automatically generated from VICON data using
   VICON BodyBuilder and BodyLanguage model FoxedUp or BRILLIANT.MOD
:root
   order TX TY TZ RX RY RZ
   axis XYZ
   position 0 0 0  
   orientation 0 0 0 
:bonedata
  begin
     id 1 
     name lhipjoint
     direction 0.573633 -0.743009 0.344793 
     length 2.46257 
     axis 0 0 0  XYZ
  end
  begin
     id 2 
     name lfemur
     direction 0.34202 -0.939693 0  
     length 7.3842  
     axis 0 0 20  XYZ
    dof rx ry rz
    limits (-160.0 20.0)
           (-70.0 70.0)
           (-60.0 70.0)
  end
  begin
     id 3 
     name ltibia
     direction 0.34202 -0.939693 0   
     length 7.50407   
     axis 0 0 20   XYZ
    dof rx
    limits (-10.0 170.0)
  end
  begin
     id 4 
     name lfoot
     direction 0.110749 -0.304281 0.946123   
     length 1.95925   
     axis -90 7.62852e-016 20   XYZ
    dof rx rz
    limits (-45.0 90.0)
           (-70.0 20.0)
  end
  begin
     id 5 
     name ltoes
     direction 1.53554e-011 -4.21843e-011 1   
     length 0.978318   
     axis -90 7.62852e-016 20   XYZ
    dof rx
    limits (-90.0 20.0)
  end
  begin
     id 6 
     name rhipjoint
     direction -0.488109 -0.791693 0.367385   
     length 2.31113  
     axis 0 0 0  XYZ 
  end
  begin
     id 7 
     name rfemur
     direction -0.34202 -0.939693 0   
     length 7.40965   
     axis 0 0 -20   XYZ
    dof rx ry rz
    limits (-160.0 20.0)
           (-70.0 70.0)
           (-70.0 60.0)
  end
  begin
     id 8 
     name rtibia
     direction -0.34202 -0.939693 0   
     length 7.55548   
     axis 0 0 -20   XYZ
    dof rx
    limits (-10.0 170.0)
 end
 begin
     id 9 
     name rfoot
     direction -0.127594 -0.350561 0.927808   
     length 2.07199  
     axis -90 -7.62852e-016 -20   XYZ
    dof rx rz
    limits (-45.0 90.0)
           (-20.0 70.0)
  end
  begin
     id 10 
     name rtoes
     direction -1.53542e-011 -4.21909e-011 1   
     length 1.02667   
     axis -90 -7.62852e-016 -20   XYZ
    dof rx
    limits (-90.0 20.0)
  end
  begin
     id 11 
     name lowerback
     direction -0.0103342 0.997298 -0.0727278   
     length 2.02836   
     axis 0 0 0   XYZ
    dof rx ry rz
    limits (-20.0 45.0)
           (-30.0 30.0)
           (-30.0 30.0)
  end
  begin
     id 12 
     name upperback
     direction 0.0171146 0.999786 -0.011606   
     length 2.03179   
     axis 0 0 0   XYZ
    dof rx ry rz
    limits (-20.0 45.0)
           (-30.0 30.0)
           (-30.0 30.0)
  end
  begin
     id 13 
     name thorax
     direction 0.0216927 0.999513 0.0224343   
     length 2.03882   
     axis 0 0 0   XYZ
    dof rx ry rz
    limits (-20.0 45.0)
           (-30.0 30.0)
           (-30.0 30.0)
  end
  begin
     id 14 
     name lowerneck
     direction 0.000989287 0.993907 0.110221   
     length 1.75428   
     axis 0 0 0   XYZ
    dof rx ry rz
    limits (-20.0 45.0)
           (-30.0 30.0)
           (-30.0 30.0)
  end
  begin
     id 15 
     name upperneck
     direction -0.0172474 0.994813 -0.100253   
     length 1.77058   
     axis 0 0 0   XYZ
    dof rx ry rz
    limits (-20.0 45.0)
           (-30.0 30.0)
           (-30.0 30.0)
  end
  begin
     id 16
     name head
     direction -0.00486455 0.99894 -0.0457663  
     length 1.77427  
     axis 0 0 0   XYZ
    dof rx ry rz
    limits (-20.0 45.0)
           (-30.0 30.0)
           (-30.0 30.0)
  end
  begin
     id 17 
     name lclavicle
     direction 0.927314 0.333734 -0.169441  
     length 3.97584  
     axis 0 0 0   XYZ
    dof ry rz
    limits (-20.0 10.0)
           (0.0 20.0)
  end
  begin
     id 18 
     name lhumerus
     direction 1 -4.48965e-011 -3.25313e-028   
     length 4.76468   
     axis 180 -30 -90   XYZ
    dof rx ry rz
    limits (-60.0 90.0)
           (-90.0 90.0)
           (-90.0 90.0)
  end
  begin
     id 19
     name lradius
     direction 1 -4.48969e-011 -2.8465e-028   
     length 3.52712   
     axis -180 -30 -90   XYZ
    dof rx
    limits (-10.0 170.0)
  end
  begin
     id 20
     name lwrist
     direction 1 -4.4896e-011 -7.78665e-028   
     length 1.76356   
     axis 1.91374e-015 90 90   XYZ
    dof ry
    limits (-180.0 0.0)
 end
  begin
     id 21 
     name lhand
     direction 1 -4.48959e-011 -1.55733e-027   
     length 0.859564   
     axis 9.9371e-016 90 90   XYZ
    dof rx rz
    limits (-90.0 90.0)
           (-45.0 45.0)
  end
  begin
     id 22 
     name lfingers
     direction 1 -4.48965e-011 -3.11466e-027   
     length 0.693002   
     axis 1.98742e-015 90 90   XYZ
    dof rx
    limits (0.0 90.0)
  end
  begin
     id 23
     name lthumb
     direction 0.707107 -6.34948e-011 0.707107   
     length 0.995017   
     axis -90 45 2.85299e-015   XYZ
    dof rx rz
    limits (-45.0 45.0)
           (-45.0 45.0)
  end
  begin
     id 24 
     name rclavicle
     direction -0.899388 0.348209 -0.264294   
     length 3.68366  
     axis 0 0 0   XYZ 
    dof ry rz
    limits (-10.0 20.0)
           (-20.0 0.0)
  end
  begin
     id 25 
     name rhumerus
     direction -1 -4.48965e-011 -3.01536e-027  
     length 4.90577   
     axis 180 30 90   XYZ
    dof rx ry rz
    limits (-90.0 60.0)
           (-90.0 90.0)
           (-90.0 90.0)
  end
  begin
     id 26 
     name rradius
     direction -1 -4.48966e-011 3.93291e-027   
     length 3.42692   
     axis -180 30 90   XYZ
    dof rx
    limits (-10.0 170.0)
  end
  begin
     id 27 
     name rwrist
     direction -1 -4.48969e-011 -7.78665e-028   
     length 1.71346   
     axis 1.91374e-015 -90 -90   XYZ
    dof ry
    limits (-180.0 0.0)
  end
  begin
     id 28
     name rhand
     direction -1 -4.48967e-011 -1.55733e-027   
     length 0.740957   
     axis 9.9371e-016 -90 -90   XYZ
    dof rx rz
    limits (-90.0 90.0)
           (-45.0 45.0)
  end
  begin
     id 29
     name rfingers
     direction -1 -4.48949e-011 -3.11466e-027   
     length 0.597378   
     axis 1.98742e-015 -90 -90   XYZ
    dof rx
    limits (0.0 90.0)
  end
  begin
     id 30
     name rthumb
     direction -0.707107 -6.34931e-011 0.707107   
     length 0.857719   
     axis -90 -45 -2.85299e-015   XYZ
    dof rx rz
    limits (-45.0 45.0)
           (-45.0 45.0)
  end
:hierarchy
  begin
    root lhipjoint rhipjoint lowerback
    lhipjoint lfemur
    lfemur ltibia
    ltibia lfoot
    lfoot ltoes
    rhipjoint rfemur
    rfemur rtibia
    rtibia rfoot
    rfoot rtoes
    lowerback upperback
    upperback thorax
    thorax lowerneck lclavicle rclavicle
    lowerneck upperneck
    upperneck head
    lclavicle lhumerus
    lhumerus lradius
    lradius lwrist
    lwrist lhand lthumb
    lhand lfingers
    rclavicle rhumerus
    rhumerus rradius
    rradius rwrist
    rwrist rhand rthumb
    rhand rfingers
  end

#!OML:ASF E:\I on waltz\AllaLogoMonkeySwing\Project 1\Capture day 1\Session 1\Subject1.ASF
:FULLY-SPECIFIED
:DEGREES
234
root -4.46854 23.4773 6.5252 -53.1787 47.4719 -42.1976
lowerback 39.7613 -0.548368 5.87284
upperback 6.10338 3.88844 8.86957
thorax -12.955 1.87109 4.83762
lowerneck -9.54059 -9.21753 -8.56675
upperneck 6.22256 -11.8721 7.1503
head 4.34396 -5.723 2.69617
rclavicle 5.22804e-014 4.29375e-014
rhumerus 18.2556 0.602906 -30.8061
rradius 42.2856
rwrist -4.42391
rhand -13.1151 -34.7309
rfingers 7.12502
rthumb 12.9822 -64.307
lclavicle 5.22804e-014 4.29375e-014
lhumerus 20.4726 13.4533 24.3968
lradius 103.851
lwrist 22.5519
lhand -20.0537 -36.3337
lfingers 7.12502
lthumb 6.28797 -6.44704
rfemur -93.0276 -53.2783 20.5925
rtibia 132.544
rfoot -24.9179 -11.0349
rtoes 42.0808
lfemur -10.1807 43.6789 41.2044
ltibia 135.577
lfoot -14.1782 -26.675
ltoes -31.4014
235
root -4.54803 23.6474 6.90319 -55.2543 47.2244 -43.4556
lowerback 41.3141 -0.590962 6.29983
upperback 6.56049 4.33538 9.51934
thorax -13.017 2.07979 5.12388
lowerneck -9.5476 -9.23637 -8.19473
upperneck 5.56736 -11.9307 7.35509
head 4.14023 -5.7373 2.71084
rclavicle -5.46658e-014 -8.74653e-015
rhumerus 19.5101 -1.76557 -31.5336
rradius 39.0436
rwrist -5.37062
rhand -13.5793 -35.1527
rfingers 7.12502
rthumb 12.5347 -64.7568
lclavicle -5.46658e-014 -8.74653e-015
lhumerus 17.7891 15.0908 20.2986
lradius 101.266
lwrist 23.4775
lhand -20.5697 -34.7207
lfingers 7.12502
lthumb 5.7898 -4.8198
rfemur -86.4797 -46.7279 13.9399
rtibia 120.775
rfoot -24.9273 -13.0611
rtoes 41.0738
lfemur 8.99553 47.75 72.1987
ltibia 145.409
lfoot -21.8471 -30.9601
ltoes -27.1515
236
root -4.596 23.7907 7.27894 -57.8668 47.7003 -46.2207
lowerback 41.6141 -1.16749 7.25176
upperback 6.93321 4.2261 10.2068
thorax -12.6711 2.04341 5.4435
lowerneck -9.47575 -9.34821 -7.90625
upperneck 5.03403 -12.1226 7.66832
head 3.98392 -5.81714 2.75933
rclavicle -2.40529e-014 1.11319e-014
rhumerus 20.4312 -4.13347 -31.5304
rradius 36.3052
rwrist -3.72266
rhand -10.7085 -34.7237
rfingers 7.12502
rthumb 15.3013 -64.1377
lclavicle -2.40529e-014 1.11319e-014
lhumerus 15.1641 16.3156 16.3299
lradius 98.5136
lwrist 23.7026
lhand -19.5044 -33.7617
lfingers 7.12502
lthumb 6.8183 -3.8915
rfemur -79.6582 -43.1422 8.03737
rtibia 106.233
rfoot -24.3161 -14.2303
rtoes 35.4388
lfemur 18.764 44.8484 93.4623
ltibia 152.718
lfoot -26.4417 -35.4133
ltoes -28.4655
237
root -4.67112 23.8409 7.60459 -56.7523 46.4704 -44.4301
lowerback 42.7916 -0.2293 7.35269
upperback 7.32008 5.63998 10.5501
thorax -12.7285 2.67522 5.10622
lowerneck -9.20915 -9.59657 -7.59366
upperneck 4.41496 -12.4963 7.88322
head 3.77622 -5.99878 2.77015
rclavicle -3.3197e-014 -3.65764e-014
rhumerus 21.0833 -5.72666 -30.4699
rradius 33.7927
rwrist -1.54956
rhand -8.39109 -33.5117
rfingers 7.12502
rthumb 17.5325 -62.7411
lclavicle -3.3197e-014 -3.65764e-014
lhumerus 12.558 17.6611 12.9516
lradius 95.3167
lwrist 21.2959
lhand -16.8442 -34.4456
lfingers 7.12502
lthumb 9.38566 -4.67458
rfemur -73.6461 -36.9038 3.03501
rtibia 88.1297
rfoot -26.0882 -13.0863
rtoes 35.6259
lfemur 23.6847 41.1714 103.876
ltibia 155.767
lfoot -33.3741 -41.1883
ltoes -36.8681
238
root -4.68609 23.9731 7.93248 -59.1362 48.0656 -47.0346
lowerback 42.4224 -0.569695 7.46058
upperback 7.67836 5.36427 11.2096
thorax -12.267 2.60665 5.91044
lowerneck -8.6009 -10.0178 -7.46343
upperneck 3.63334 -13.1088 8.36353
head 3.5134 -6.304 2.88762
rclavicle 3.53837e-014 7.59357e-014
rhumerus 21.3294 -6.70015 -28.537
rradius 31.4528
rwrist 0.994294
rhand -7.45441 -32.0617
rfingers 7.12502
rthumb 18.4337 -61.2083
lclavicle 3.53837e-014 7.59357e-014
lhumerus 9.80156 18.0369 10.0772
lradius 92.9487
lwrist 20.7164
lhand -15.116 -34.9351
lfingers 7.12502
lthumb 11.0528 -5.24616
rfemur -63.8794 -35.1961 -3.62717
rtibia 68.8982
rfoot -25.4529 -16.5258
rtoes 30.5217
lfemur 17.8135 44.6302 94.0445
ltibia 151.457
lfoot -39.6026 -52.3223
ltoes -39.2332
239
root -4.70273 23.9819 8.47139 -59.3252 48.5829 -47.1239
lowerback 42.1585 -0.0861533 7.32977
upperback 7.9917 5.94677 11.6441
thorax -11.9537 2.90775 6.18403
lowerneck -7.61445 -10.6329 -7.50675
upperneck 2.75626 -13.9905 9.10819
head 3.21789 -6.75215 3.10988
rclavicle -8.24956e-014 -6.36111e-014
rhumerus 21.0539 -7.2854 -26.1674
rradius 29.4792
rwrist 3.16467
rhand -7.79602 -31.1897
rfingers 7.12502
rthumb 18.1051 -60.367
lclavicle -8.24956e-014 -6.36111e-014
lhumerus 7.16767 18.0529 7.75028
lradius 90.656
lwrist 21.3236
lhand -15.4562 -34.765
lfingers 7.12502
lthumb 10.7248 -5.0588
rfemur -51.1615 -24.9735 -16.6719
rtibia 48.2656
rfoot -2.96066 36.6905
rtoes 66.4386
lfemur 10.6615 45.6804 81.4974
ltibia 144.58
lfoot -48.3818 -49.9169
ltoes -53.0362
240
root -4.6591 24.0966 8.54565 -59.7682 48.7786 -47.4728
lowerback 41.7144 0.361513 7.40023
upperback 8.21799 6.56235 12.1186
thorax -11.6788 3.22061 6.3893
lowerneck -7.05037 -11.0822 -7.93634
upperneck 2.74529 -14.6776 10.3903
head 3.31488 -7.06973 3.51564
rclavicle 4.64659e-014 -1.19271e-014
rhumerus 20.371 -7.79788 -23.9404
rradius 27.9529
rwrist 4.36195
rhand -8.63871 -31.1287
rfingers 7.12502
rthumb 17.2942 -60.3792
lclavicle 4.64659e-014 -1.19271e-014
lhumerus 4.66165 17.4318 5.51122
lradius 88.7225
lwrist 23.708
lhand -15.0301 -33.4953
lfingers 7.12502
lthumb 11.1358 -3.81075
rfemur -43.1608 -10.7471 -26.8808
rtibia 30.9218
rfoot -50.6608 -3.20553
rtoes 62.9699
lfemur -0.962849 46.514 56.0589
ltibia 135.593
lfoot -29.8768 -55.4619
ltoes -37.9153
241
root -4.62781 24.0999 8.92954 -59.7293 49.6475 -47.4473
lowerback 41.0415 0.933367 6.75654
upperback 8.19128 6.94927 12.302
thorax -11.6496 3.42995 6.74756
lowerneck -6.85745 -11.4823 -7.626
upperneck 3.39128 -15.3323 10.7424
head 3.54369 -7.36932 3.50724
rclavicle -2.47487e-014 -2.75317e-014
rhumerus 19.5153 -8.51447 -22.2638
rradius 26.6732
rwrist 4.65609
rhand -9.28462 -31.2327
rfingers 7.12502
rthumb 16.6724 -60.5367
lclavicle -2.47487e-014 -2.75317e-014
lhumerus 2.35546 15.9157 3.11264
lradius 86.3549
lwrist 24.3065
lhand -16.7205 -32.9987
lfingers 7.12502
lthumb 9.50501 -3.2331
rfemur 32.1315 -141.834 -62.695
rtibia 10.8723
rfoot 76.9863 38.0652
rtoes 62.5231
lfemur -8.73279 43.4078 39.2699
ltibia 126.32
lfoot -21.1372 -45.7489
ltoes -37.4313
242
root -4.61126 24.0221 9.29282 -60.4865 49.9725 -48.7799
lowerback 40.0574 0.896733 7.21966
upperback 7.9368 7.01847 12.4023
thorax -11.5806 3.4659 6.60436
lowerneck -7.21525 -12.0806 -8.08742
upperneck 5.12378 -16.3097 11.6829
head 4.33706 -7.76301 3.6811
rclavicle 2.22639e-014 1.00585e-013
rhumerus 18.898 -9.31256 -21.0381
rradius 25.3927
rwrist 4.26236
rhand -9.42644 -31.1172
rfingers 7.12502
rthumb 16.5359 -60.4326
lclavicle 2.22639e-014 1.00585e-013
lhumerus 0.235976 14.0728 0.338405
lradius 83.5089
lwrist 23.9248
lhand -18.059 -33.5449
lfingers 7.12502
lthumb 8.21336 -3.72454
rfemur -57.6275 -56.448 13.9382
rtibia -2.62396e-014
rfoot -18.9599 21.3522
rtoes 8.78635
lfemur -13.9009 38.9769 27.5179
ltibia 116.446
lfoot -12.645 -33.0267
ltoes -35.4052
243
root -4.60798 23.8176 9.67985 -60.7239 51.0902 -49.163
lowerback 38.8964 1.04143 7.26503
upperback 7.65634 7.02232 12.0872
thorax -11.4388 3.47239 6.25096
lowerneck -4.98132 -13.0793 -11.6639
upperneck 4.76894 -17.9049 15.9461
head 4.76659 -8.53837 5.40831
rclavicle -2.03257e-014 -5.05907e-014
rhumerus 18.1255 -10.3699 -19.3745
rradius 23.9563
rwrist 3.95308
rhand -8.47157 -30.8033
rfingers 7.12502
rthumb 17.455 -60.0396
lclavicle -2.03257e-014 -5.05907e-014
lhumerus -0.944404 11.9465 -2.48131
lradius 80.1117
lwrist 23.1457
lhand -18.135 -35.1877
lfingers 7.12502
lthumb 8.14004 -5.36446
rfemur -32.5195 -3.97801 -37.4737
rtibia 12.9497
rfoot -53.0209 -39.0713
rtoes 14.6572
lfemur -15.3208 34.486 19.2631
ltibia 105.973
lfoot -6.96665 -21.9255
ltoes -32.5022
